<?xml version="1.0" encoding="utf-8"?>
<?xml-stylesheet type="text/xsl" href="rss1.xsl"?>
<rss version="2.0" xmlns:atom="http://www.w3.org/2005/Atom" xmlns:content="http://purl.org/rss/1.0/modules/content/" xmlns:dc="http://purl.org/dc/elements/1.1/" xmlns:media="http://search.yahoo.com/mrss/">
<channel>
 <title>Getty</title>
 <link>http://www.gettyimg.com/</link>
 <atom:link href="http://www.gettyimg.com/" rel="self" type="application/rss+xml" />

 
                <item>
                <title><![CDATA[【Music Videos】Alan Walker x Benjamin Ingrosso - Man On The Moon [4K HEVC 10-bit | PCM 24-bit]]]></title>
                <link><![CDATA[https://sharemania.us/threads/alan-walker-x-benjamin-ingrosso-man-on-the-moon-4k-hevc-10-bit-pcm-24-bit.223278/]]></link>
                <description><![CDATA[<article>
<blockquote class="messageText SelectQuoteContainer ugc baseHtml">
<b><img src="https://images2.imgbox.com/7b/a0/4yka1Z6O_o.jpg" class="bbCodeImage LbImage" alt="[​IMG]" data-url="https://images2.imgbox.com/7b/a0/4yka1Z6O_o.jpg" style=""> <br>
<img src="https://images2.imgbox.com/a7/0a/upi8VFTJ_o.jpg" class="bbCodeImage LbImage" alt="[​IMG]" data-url="https://images2.imgbox.com/a7/0a/upi8VFTJ_o.jpg" style=""> <br>
<br>
Genre: <span style="color: #0059b3">Electronic, Pop</span><br>
Style: <span style="color: #0059b3">Dance-pop</span><br>
Year: <span style="color: #0059b3">2021</span> <br>
Video Source: <span style="color: #0059b3">Apple Music, thanks Brungor</span><br>
Audio Source: <span style="color: #0059b3">Qobuz, Hi-Res 24-bit</span></b><br>
<br>
"<b>Man On The Moon</b>" is a song produced by British-Norwegian record producer and DJ Alan Walker incorporating vocals provided by Swedish singer-songwriter Benjamin Ingrosso. It's the second track on <i>World Of Walker</i>, released on 26 November 2021 and spent 80 weeks on the charts.<br>
<br>
The music video of "Man On The Moon" is directed by Mads Neset and has reached 18.7M total views and 253.3K likes on YouTube (June 2023).<br>
<br>
<b>Release Info</b><br>
The video track is downloaded from Apple Music by Brungor, left as is (2160p HEVC 10-bit).<br>
The PCM track is lossless (Qobuz, HiRes 24-bit), edited and synced with Adobe Audition.<br>
The timed lyrics are synced and edited to match the music video.<br>
Enable the subtitles to see the lyrics.<br>
<br>
<div class="ToggleTriggerAnchor bbCodeSpoilerContainer">
<button type="button" class="button bbCodeSpoilerButton ToggleTrigger Tooltip JsOnly" data-target="> .SpoilerTarget"><span>Spoiler: <span class="SpoilerTitle">Media Info</span></span></button>
<div class="SpoilerTarget bbCodeSpoilerText">
<div class="bbCodeBlock bbCodeCode">
<div class="type">Code:</div>
<pre>General
Unique ID                      : 178574413488660779228459677366652671102 (0x86582E5795681233FC96F071408E947E)
Complete name                  : Alan Walker x Benjamin Ingrosso - Man On The Moon.mkv
Format                         : Matroska
Format version                 : Version 4 / Version 2
File size                      : 303 MiB
Duration                       : 3 min 2 s
Overall bit rate               : 13.9 Mb/s
Frame rate                     : 25.000 FPS
Encoded date                   : 2023-06-22 01:05:47 UTC
Writing application            : mkvmerge v76.0 ('Celebration') 64-bit
Writing library                : libebml v1.4.4 + libmatroska v1.7.1
Cover                          : Yes
Attachments                    : cover.jpg

Video
ID                             : 1
Format                         : HEVC
Format/Info                    : High Efficiency Video Coding
Format profile                 : Main 10@L5@High
Codec ID                       : V_MPEGH/ISO/HEVC
Duration                       : 3 min 2 s
Bit rate                       : 11.6 Mb/s
Width                          : 3 840 pixels
Height                         : 1 604 pixels
Display aspect ratio           : 2.40:1
Frame rate mode                : Constant
Frame rate                     : 25.000 FPS
Color space                    : YUV
Chroma subsampling             : 4:2:0
Bit depth                      : 10 bits
Bits/(Pixel*Frame)             : 0.075
Stream size                    : 251 MiB (83%)
Default                        : Yes
Forced                         : No
Color range                    : Limited
Color primaries                : BT.709
Transfer characteristics       : BT.709
Matrix coefficients            : BT.709

Audio #1
ID                             : 2
Format                         : PCM
Format settings                : Little / Signed
Codec ID                       : A_PCM/INT/LIT
Duration                       : 3 min 2 s
Bit rate mode                  : Constant
Bit rate                       : 2 117 kb/s
Channel(s)                     : 2 channels
Sampling rate                  : 44.1 kHz
Frame rate                     : 25.002 FPS (1764 SPF)
Bit depth                      : 24 bits
Stream size                    : 46.0 MiB (15%)
Title                          : 24-bit
Language                       : English
Default                        : Yes
Forced                         : No

Audio #2
ID                             : 3
Format                         : AAC LC
Format/Info                    : Advanced Audio Codec Low Complexity
Codec ID                       : A_AAC-2
Duration                       : 3 min 2 s
Bit rate                       : 265 kb/s
Channel(s)                     : 2 channels
Channel layout                 : L R
Sampling rate                  : 48.0 kHz
Frame rate                     : 46.875 FPS (1024 SPF)
Compression mode               : Lossy
Stream size                    : 5.83 MiB (2%)
Language                       : English
Default                        : No
Forced                         : No

Text
ID                             : 4
Format                         : UTF-8
Codec ID                       : S_TEXT/UTF8
Codec ID/Info                  : UTF-8 Plain Text
Duration                       : 2 min 43 s
Bit rate                       : 69 b/s
Frame rate                     : 0.250 FPS
Count of elements              : 41
Stream size                    : 1.39 KiB (0%)
Title                          : Lyrics
Language                       : English
Default                        : No
Forced                         : No
</pre>
</div></div>
</div><br>
<div class="bbCodeBlock bbCodeVfcHH HiddenContent">
<div class="attribution type">Hidden Content:</div>
<blockquote>You must reply before you can see the hidden data contained here.</blockquote>
</div>
<div class="messageTextEndMarker">&nbsp;</div>
</blockquote>
</article>]]></description>
                <author><![CDATA[ADHDerby]]></author>
                </item>

                </channel></rss>